%TF.GenerationSoftware,KiCad,Pcbnew,(6.0.11)*%
%TF.CreationDate,2023-02-13T21:24:24+05:30*%
%TF.ProjectId,charg,63686172-672e-46b6-9963-61645f706362,rev?*%
%TF.SameCoordinates,Original*%
%TF.FileFunction,Drillmap*%
%TF.FilePolarity,Positive*%
%FSLAX45Y45*%
G04 Gerber Fmt 4.5, Leading zero omitted, Abs format (unit mm)*
G04 Created by KiCad (PCBNEW (6.0.11)) date 2023-02-13 21:24:24*
%MOMM*%
%LPD*%
G01*
G04 APERTURE LIST*
%ADD10C,0.100000*%
%ADD11C,0.200000*%
%ADD12C,0.040000*%
%ADD13C,0.050000*%
%ADD14C,0.120000*%
G04 APERTURE END LIST*
D10*
X13359000Y-6615000D02*
X13359000Y-5415000D01*
X13359000Y-6615000D02*
G75*
G03*
X13759000Y-7015000I400000J0D01*
G01*
X13759000Y-5015000D02*
X15859000Y-5015000D01*
X15859000Y-7015000D02*
G75*
G03*
X16259000Y-6615000I0J400000D01*
G01*
X13759000Y-5015000D02*
G75*
G03*
X13359000Y-5415000I0J-400000D01*
G01*
X16259000Y-5415000D02*
X16259000Y-6615000D01*
X16259000Y-5415000D02*
G75*
G03*
X15859000Y-5015000I-400000J0D01*
G01*
X15859000Y-7015000D02*
X13759000Y-7015000D01*
D11*
D12*
X14331000Y-5695000D02*
X14371000Y-5735000D01*
X14371000Y-5695000D02*
X14331000Y-5735000D01*
X14331000Y-6330000D02*
X14371000Y-6370000D01*
X14371000Y-6330000D02*
X14331000Y-6370000D01*
X14788200Y-6025200D02*
X14828200Y-6065200D01*
X14828200Y-6025200D02*
X14788200Y-6065200D01*
X14788200Y-6101400D02*
X14828200Y-6141400D01*
X14828200Y-6101400D02*
X14788200Y-6141400D01*
X14876600Y-6037400D02*
X14916600Y-6077400D01*
X14916600Y-6037400D02*
X14876600Y-6077400D01*
X14883600Y-6107600D02*
X14923600Y-6147600D01*
X14923600Y-6107600D02*
X14883600Y-6147600D01*
X15283500Y-6520500D02*
X15323500Y-6560500D01*
X15323500Y-6520500D02*
X15283500Y-6560500D01*
X15410500Y-6203000D02*
X15450500Y-6243000D01*
X15450500Y-6203000D02*
X15410500Y-6243000D01*
D13*
X15011000Y-6477000D02*
G75*
G03*
X15011000Y-6477000I-25000J0D01*
G01*
D14*
X13843000Y-5401000D02*
X13843000Y-5521000D01*
X13783000Y-5461000D02*
X13903000Y-5461000D01*
X13843000Y-5751000D02*
X13843000Y-5871000D01*
X13783000Y-5811000D02*
X13903000Y-5811000D01*
X13843000Y-6101000D02*
X13843000Y-6221000D01*
X13783000Y-6161000D02*
X13903000Y-6161000D01*
X13843000Y-6451000D02*
X13843000Y-6571000D01*
X13783000Y-6511000D02*
X13903000Y-6511000D01*
X15830000Y-5384000D02*
X15830000Y-5504000D01*
X15770000Y-5444000D02*
X15890000Y-5444000D01*
X15830000Y-5734000D02*
X15830000Y-5854000D01*
X15770000Y-5794000D02*
X15890000Y-5794000D01*
X15830000Y-6084000D02*
X15830000Y-6204000D01*
X15770000Y-6144000D02*
X15890000Y-6144000D01*
X15830000Y-6434000D02*
X15830000Y-6554000D01*
X15770000Y-6494000D02*
X15890000Y-6494000D01*
D11*
X13611619Y-7330476D02*
X13611619Y-7130476D01*
X13659238Y-7130476D01*
X13687809Y-7140000D01*
X13706857Y-7159048D01*
X13716381Y-7178095D01*
X13725905Y-7216190D01*
X13725905Y-7244762D01*
X13716381Y-7282857D01*
X13706857Y-7301905D01*
X13687809Y-7320952D01*
X13659238Y-7330476D01*
X13611619Y-7330476D01*
X13811619Y-7330476D02*
X13811619Y-7197143D01*
X13811619Y-7235238D02*
X13821143Y-7216190D01*
X13830667Y-7206667D01*
X13849714Y-7197143D01*
X13868762Y-7197143D01*
X13935428Y-7330476D02*
X13935428Y-7197143D01*
X13935428Y-7130476D02*
X13925905Y-7140000D01*
X13935428Y-7149524D01*
X13944952Y-7140000D01*
X13935428Y-7130476D01*
X13935428Y-7149524D01*
X14059238Y-7330476D02*
X14040190Y-7320952D01*
X14030667Y-7301905D01*
X14030667Y-7130476D01*
X14164000Y-7330476D02*
X14144952Y-7320952D01*
X14135428Y-7301905D01*
X14135428Y-7130476D01*
X14392571Y-7330476D02*
X14392571Y-7130476D01*
X14459238Y-7273333D01*
X14525905Y-7130476D01*
X14525905Y-7330476D01*
X14706857Y-7330476D02*
X14706857Y-7225714D01*
X14697333Y-7206667D01*
X14678286Y-7197143D01*
X14640190Y-7197143D01*
X14621143Y-7206667D01*
X14706857Y-7320952D02*
X14687809Y-7330476D01*
X14640190Y-7330476D01*
X14621143Y-7320952D01*
X14611619Y-7301905D01*
X14611619Y-7282857D01*
X14621143Y-7263809D01*
X14640190Y-7254286D01*
X14687809Y-7254286D01*
X14706857Y-7244762D01*
X14802095Y-7197143D02*
X14802095Y-7397143D01*
X14802095Y-7206667D02*
X14821143Y-7197143D01*
X14859238Y-7197143D01*
X14878286Y-7206667D01*
X14887809Y-7216190D01*
X14897333Y-7235238D01*
X14897333Y-7292381D01*
X14887809Y-7311428D01*
X14878286Y-7320952D01*
X14859238Y-7330476D01*
X14821143Y-7330476D01*
X14802095Y-7320952D01*
X14983048Y-7311428D02*
X14992571Y-7320952D01*
X14983048Y-7330476D01*
X14973524Y-7320952D01*
X14983048Y-7311428D01*
X14983048Y-7330476D01*
X14983048Y-7206667D02*
X14992571Y-7216190D01*
X14983048Y-7225714D01*
X14973524Y-7216190D01*
X14983048Y-7206667D01*
X14983048Y-7225714D01*
D12*
X13314000Y-7640000D02*
X13354000Y-7680000D01*
X13354000Y-7640000D02*
X13314000Y-7680000D01*
D11*
X13649714Y-7550476D02*
X13668762Y-7550476D01*
X13687809Y-7560000D01*
X13697333Y-7569524D01*
X13706857Y-7588571D01*
X13716381Y-7626667D01*
X13716381Y-7674286D01*
X13706857Y-7712381D01*
X13697333Y-7731428D01*
X13687809Y-7740952D01*
X13668762Y-7750476D01*
X13649714Y-7750476D01*
X13630667Y-7740952D01*
X13621143Y-7731428D01*
X13611619Y-7712381D01*
X13602095Y-7674286D01*
X13602095Y-7626667D01*
X13611619Y-7588571D01*
X13621143Y-7569524D01*
X13630667Y-7560000D01*
X13649714Y-7550476D01*
X13802095Y-7731428D02*
X13811619Y-7740952D01*
X13802095Y-7750476D01*
X13792571Y-7740952D01*
X13802095Y-7731428D01*
X13802095Y-7750476D01*
X13983048Y-7617143D02*
X13983048Y-7750476D01*
X13935428Y-7540952D02*
X13887809Y-7683809D01*
X14011619Y-7683809D01*
X14125905Y-7550476D02*
X14144952Y-7550476D01*
X14164000Y-7560000D01*
X14173524Y-7569524D01*
X14183048Y-7588571D01*
X14192571Y-7626667D01*
X14192571Y-7674286D01*
X14183048Y-7712381D01*
X14173524Y-7731428D01*
X14164000Y-7740952D01*
X14144952Y-7750476D01*
X14125905Y-7750476D01*
X14106857Y-7740952D01*
X14097333Y-7731428D01*
X14087809Y-7712381D01*
X14078286Y-7674286D01*
X14078286Y-7626667D01*
X14087809Y-7588571D01*
X14097333Y-7569524D01*
X14106857Y-7560000D01*
X14125905Y-7550476D01*
X14316381Y-7550476D02*
X14335428Y-7550476D01*
X14354476Y-7560000D01*
X14364000Y-7569524D01*
X14373524Y-7588571D01*
X14383048Y-7626667D01*
X14383048Y-7674286D01*
X14373524Y-7712381D01*
X14364000Y-7731428D01*
X14354476Y-7740952D01*
X14335428Y-7750476D01*
X14316381Y-7750476D01*
X14297333Y-7740952D01*
X14287809Y-7731428D01*
X14278286Y-7712381D01*
X14268762Y-7674286D01*
X14268762Y-7626667D01*
X14278286Y-7588571D01*
X14287809Y-7569524D01*
X14297333Y-7560000D01*
X14316381Y-7550476D01*
X14468762Y-7750476D02*
X14468762Y-7617143D01*
X14468762Y-7636190D02*
X14478286Y-7626667D01*
X14497333Y-7617143D01*
X14525905Y-7617143D01*
X14544952Y-7626667D01*
X14554476Y-7645714D01*
X14554476Y-7750476D01*
X14554476Y-7645714D02*
X14564000Y-7626667D01*
X14583048Y-7617143D01*
X14611619Y-7617143D01*
X14630667Y-7626667D01*
X14640190Y-7645714D01*
X14640190Y-7750476D01*
X14735428Y-7750476D02*
X14735428Y-7617143D01*
X14735428Y-7636190D02*
X14744952Y-7626667D01*
X14764000Y-7617143D01*
X14792571Y-7617143D01*
X14811619Y-7626667D01*
X14821143Y-7645714D01*
X14821143Y-7750476D01*
X14821143Y-7645714D02*
X14830667Y-7626667D01*
X14849714Y-7617143D01*
X14878286Y-7617143D01*
X14897333Y-7626667D01*
X14906857Y-7645714D01*
X14906857Y-7750476D01*
X15297333Y-7540952D02*
X15125905Y-7798095D01*
X15554476Y-7550476D02*
X15573524Y-7550476D01*
X15592571Y-7560000D01*
X15602095Y-7569524D01*
X15611619Y-7588571D01*
X15621143Y-7626667D01*
X15621143Y-7674286D01*
X15611619Y-7712381D01*
X15602095Y-7731428D01*
X15592571Y-7740952D01*
X15573524Y-7750476D01*
X15554476Y-7750476D01*
X15535428Y-7740952D01*
X15525905Y-7731428D01*
X15516381Y-7712381D01*
X15506857Y-7674286D01*
X15506857Y-7626667D01*
X15516381Y-7588571D01*
X15525905Y-7569524D01*
X15535428Y-7560000D01*
X15554476Y-7550476D01*
X15706857Y-7731428D02*
X15716381Y-7740952D01*
X15706857Y-7750476D01*
X15697333Y-7740952D01*
X15706857Y-7731428D01*
X15706857Y-7750476D01*
X15840190Y-7550476D02*
X15859238Y-7550476D01*
X15878286Y-7560000D01*
X15887809Y-7569524D01*
X15897333Y-7588571D01*
X15906857Y-7626667D01*
X15906857Y-7674286D01*
X15897333Y-7712381D01*
X15887809Y-7731428D01*
X15878286Y-7740952D01*
X15859238Y-7750476D01*
X15840190Y-7750476D01*
X15821143Y-7740952D01*
X15811619Y-7731428D01*
X15802095Y-7712381D01*
X15792571Y-7674286D01*
X15792571Y-7626667D01*
X15802095Y-7588571D01*
X15811619Y-7569524D01*
X15821143Y-7560000D01*
X15840190Y-7550476D01*
X16097333Y-7750476D02*
X15983048Y-7750476D01*
X16040190Y-7750476D02*
X16040190Y-7550476D01*
X16021143Y-7579048D01*
X16002095Y-7598095D01*
X15983048Y-7607619D01*
X16278286Y-7550476D02*
X16183048Y-7550476D01*
X16173524Y-7645714D01*
X16183048Y-7636190D01*
X16202095Y-7626667D01*
X16249714Y-7626667D01*
X16268762Y-7636190D01*
X16278286Y-7645714D01*
X16287809Y-7664762D01*
X16287809Y-7712381D01*
X16278286Y-7731428D01*
X16268762Y-7740952D01*
X16249714Y-7750476D01*
X16202095Y-7750476D01*
X16183048Y-7740952D01*
X16173524Y-7731428D01*
X16354476Y-7550476D02*
X16487809Y-7550476D01*
X16402095Y-7750476D01*
X16554476Y-7550476D02*
X16554476Y-7588571D01*
X16630667Y-7550476D02*
X16630667Y-7588571D01*
X16925905Y-7826667D02*
X16916381Y-7817143D01*
X16897333Y-7788571D01*
X16887810Y-7769524D01*
X16878286Y-7740952D01*
X16868762Y-7693333D01*
X16868762Y-7655238D01*
X16878286Y-7607619D01*
X16887810Y-7579048D01*
X16897333Y-7560000D01*
X16916381Y-7531428D01*
X16925905Y-7521905D01*
X17030667Y-7636190D02*
X17011619Y-7626667D01*
X17002095Y-7617143D01*
X16992571Y-7598095D01*
X16992571Y-7588571D01*
X17002095Y-7569524D01*
X17011619Y-7560000D01*
X17030667Y-7550476D01*
X17068762Y-7550476D01*
X17087810Y-7560000D01*
X17097333Y-7569524D01*
X17106857Y-7588571D01*
X17106857Y-7598095D01*
X17097333Y-7617143D01*
X17087810Y-7626667D01*
X17068762Y-7636190D01*
X17030667Y-7636190D01*
X17011619Y-7645714D01*
X17002095Y-7655238D01*
X16992571Y-7674286D01*
X16992571Y-7712381D01*
X17002095Y-7731428D01*
X17011619Y-7740952D01*
X17030667Y-7750476D01*
X17068762Y-7750476D01*
X17087810Y-7740952D01*
X17097333Y-7731428D01*
X17106857Y-7712381D01*
X17106857Y-7674286D01*
X17097333Y-7655238D01*
X17087810Y-7645714D01*
X17068762Y-7636190D01*
X17344952Y-7750476D02*
X17344952Y-7550476D01*
X17430667Y-7750476D02*
X17430667Y-7645714D01*
X17421143Y-7626667D01*
X17402095Y-7617143D01*
X17373524Y-7617143D01*
X17354476Y-7626667D01*
X17344952Y-7636190D01*
X17554476Y-7750476D02*
X17535429Y-7740952D01*
X17525905Y-7731428D01*
X17516381Y-7712381D01*
X17516381Y-7655238D01*
X17525905Y-7636190D01*
X17535429Y-7626667D01*
X17554476Y-7617143D01*
X17583048Y-7617143D01*
X17602095Y-7626667D01*
X17611619Y-7636190D01*
X17621143Y-7655238D01*
X17621143Y-7712381D01*
X17611619Y-7731428D01*
X17602095Y-7740952D01*
X17583048Y-7750476D01*
X17554476Y-7750476D01*
X17735429Y-7750476D02*
X17716381Y-7740952D01*
X17706857Y-7721905D01*
X17706857Y-7550476D01*
X17887810Y-7740952D02*
X17868762Y-7750476D01*
X17830667Y-7750476D01*
X17811619Y-7740952D01*
X17802095Y-7721905D01*
X17802095Y-7645714D01*
X17811619Y-7626667D01*
X17830667Y-7617143D01*
X17868762Y-7617143D01*
X17887810Y-7626667D01*
X17897333Y-7645714D01*
X17897333Y-7664762D01*
X17802095Y-7683809D01*
X17973524Y-7740952D02*
X17992571Y-7750476D01*
X18030667Y-7750476D01*
X18049714Y-7740952D01*
X18059238Y-7721905D01*
X18059238Y-7712381D01*
X18049714Y-7693333D01*
X18030667Y-7683809D01*
X18002095Y-7683809D01*
X17983048Y-7674286D01*
X17973524Y-7655238D01*
X17973524Y-7645714D01*
X17983048Y-7626667D01*
X18002095Y-7617143D01*
X18030667Y-7617143D01*
X18049714Y-7626667D01*
X18125905Y-7826667D02*
X18135429Y-7817143D01*
X18154476Y-7788571D01*
X18164000Y-7769524D01*
X18173524Y-7740952D01*
X18183048Y-7693333D01*
X18183048Y-7655238D01*
X18173524Y-7607619D01*
X18164000Y-7579048D01*
X18154476Y-7560000D01*
X18135429Y-7531428D01*
X18125905Y-7521905D01*
D13*
X13354000Y-7924000D02*
G75*
G03*
X13354000Y-7924000I-25000J0D01*
G01*
D11*
X13649714Y-7814476D02*
X13668762Y-7814476D01*
X13687809Y-7824000D01*
X13697333Y-7833524D01*
X13706857Y-7852571D01*
X13716381Y-7890667D01*
X13716381Y-7938286D01*
X13706857Y-7976381D01*
X13697333Y-7995428D01*
X13687809Y-8004952D01*
X13668762Y-8014476D01*
X13649714Y-8014476D01*
X13630667Y-8004952D01*
X13621143Y-7995428D01*
X13611619Y-7976381D01*
X13602095Y-7938286D01*
X13602095Y-7890667D01*
X13611619Y-7852571D01*
X13621143Y-7833524D01*
X13630667Y-7824000D01*
X13649714Y-7814476D01*
X13802095Y-7995428D02*
X13811619Y-8004952D01*
X13802095Y-8014476D01*
X13792571Y-8004952D01*
X13802095Y-7995428D01*
X13802095Y-8014476D01*
X13992571Y-7814476D02*
X13897333Y-7814476D01*
X13887809Y-7909714D01*
X13897333Y-7900190D01*
X13916381Y-7890667D01*
X13964000Y-7890667D01*
X13983048Y-7900190D01*
X13992571Y-7909714D01*
X14002095Y-7928762D01*
X14002095Y-7976381D01*
X13992571Y-7995428D01*
X13983048Y-8004952D01*
X13964000Y-8014476D01*
X13916381Y-8014476D01*
X13897333Y-8004952D01*
X13887809Y-7995428D01*
X14125905Y-7814476D02*
X14144952Y-7814476D01*
X14164000Y-7824000D01*
X14173524Y-7833524D01*
X14183048Y-7852571D01*
X14192571Y-7890667D01*
X14192571Y-7938286D01*
X14183048Y-7976381D01*
X14173524Y-7995428D01*
X14164000Y-8004952D01*
X14144952Y-8014476D01*
X14125905Y-8014476D01*
X14106857Y-8004952D01*
X14097333Y-7995428D01*
X14087809Y-7976381D01*
X14078286Y-7938286D01*
X14078286Y-7890667D01*
X14087809Y-7852571D01*
X14097333Y-7833524D01*
X14106857Y-7824000D01*
X14125905Y-7814476D01*
X14316381Y-7814476D02*
X14335428Y-7814476D01*
X14354476Y-7824000D01*
X14364000Y-7833524D01*
X14373524Y-7852571D01*
X14383048Y-7890667D01*
X14383048Y-7938286D01*
X14373524Y-7976381D01*
X14364000Y-7995428D01*
X14354476Y-8004952D01*
X14335428Y-8014476D01*
X14316381Y-8014476D01*
X14297333Y-8004952D01*
X14287809Y-7995428D01*
X14278286Y-7976381D01*
X14268762Y-7938286D01*
X14268762Y-7890667D01*
X14278286Y-7852571D01*
X14287809Y-7833524D01*
X14297333Y-7824000D01*
X14316381Y-7814476D01*
X14468762Y-8014476D02*
X14468762Y-7881143D01*
X14468762Y-7900190D02*
X14478286Y-7890667D01*
X14497333Y-7881143D01*
X14525905Y-7881143D01*
X14544952Y-7890667D01*
X14554476Y-7909714D01*
X14554476Y-8014476D01*
X14554476Y-7909714D02*
X14564000Y-7890667D01*
X14583048Y-7881143D01*
X14611619Y-7881143D01*
X14630667Y-7890667D01*
X14640190Y-7909714D01*
X14640190Y-8014476D01*
X14735428Y-8014476D02*
X14735428Y-7881143D01*
X14735428Y-7900190D02*
X14744952Y-7890667D01*
X14764000Y-7881143D01*
X14792571Y-7881143D01*
X14811619Y-7890667D01*
X14821143Y-7909714D01*
X14821143Y-8014476D01*
X14821143Y-7909714D02*
X14830667Y-7890667D01*
X14849714Y-7881143D01*
X14878286Y-7881143D01*
X14897333Y-7890667D01*
X14906857Y-7909714D01*
X14906857Y-8014476D01*
X15297333Y-7804952D02*
X15125905Y-8062095D01*
X15554476Y-7814476D02*
X15573524Y-7814476D01*
X15592571Y-7824000D01*
X15602095Y-7833524D01*
X15611619Y-7852571D01*
X15621143Y-7890667D01*
X15621143Y-7938286D01*
X15611619Y-7976381D01*
X15602095Y-7995428D01*
X15592571Y-8004952D01*
X15573524Y-8014476D01*
X15554476Y-8014476D01*
X15535428Y-8004952D01*
X15525905Y-7995428D01*
X15516381Y-7976381D01*
X15506857Y-7938286D01*
X15506857Y-7890667D01*
X15516381Y-7852571D01*
X15525905Y-7833524D01*
X15535428Y-7824000D01*
X15554476Y-7814476D01*
X15706857Y-7995428D02*
X15716381Y-8004952D01*
X15706857Y-8014476D01*
X15697333Y-8004952D01*
X15706857Y-7995428D01*
X15706857Y-8014476D01*
X15840190Y-7814476D02*
X15859238Y-7814476D01*
X15878286Y-7824000D01*
X15887809Y-7833524D01*
X15897333Y-7852571D01*
X15906857Y-7890667D01*
X15906857Y-7938286D01*
X15897333Y-7976381D01*
X15887809Y-7995428D01*
X15878286Y-8004952D01*
X15859238Y-8014476D01*
X15840190Y-8014476D01*
X15821143Y-8004952D01*
X15811619Y-7995428D01*
X15802095Y-7976381D01*
X15792571Y-7938286D01*
X15792571Y-7890667D01*
X15802095Y-7852571D01*
X15811619Y-7833524D01*
X15821143Y-7824000D01*
X15840190Y-7814476D01*
X16097333Y-8014476D02*
X15983048Y-8014476D01*
X16040190Y-8014476D02*
X16040190Y-7814476D01*
X16021143Y-7843048D01*
X16002095Y-7862095D01*
X15983048Y-7871619D01*
X16192571Y-8014476D02*
X16230667Y-8014476D01*
X16249714Y-8004952D01*
X16259238Y-7995428D01*
X16278286Y-7966857D01*
X16287809Y-7928762D01*
X16287809Y-7852571D01*
X16278286Y-7833524D01*
X16268762Y-7824000D01*
X16249714Y-7814476D01*
X16211619Y-7814476D01*
X16192571Y-7824000D01*
X16183048Y-7833524D01*
X16173524Y-7852571D01*
X16173524Y-7900190D01*
X16183048Y-7919238D01*
X16192571Y-7928762D01*
X16211619Y-7938286D01*
X16249714Y-7938286D01*
X16268762Y-7928762D01*
X16278286Y-7919238D01*
X16287809Y-7900190D01*
X16354476Y-7814476D02*
X16487809Y-7814476D01*
X16402095Y-8014476D01*
X16554476Y-7814476D02*
X16554476Y-7852571D01*
X16630667Y-7814476D02*
X16630667Y-7852571D01*
X16925905Y-8090667D02*
X16916381Y-8081143D01*
X16897333Y-8052571D01*
X16887810Y-8033524D01*
X16878286Y-8004952D01*
X16868762Y-7957333D01*
X16868762Y-7919238D01*
X16878286Y-7871619D01*
X16887810Y-7843048D01*
X16897333Y-7824000D01*
X16916381Y-7795428D01*
X16925905Y-7785905D01*
X17106857Y-8014476D02*
X16992571Y-8014476D01*
X17049714Y-8014476D02*
X17049714Y-7814476D01*
X17030667Y-7843048D01*
X17011619Y-7862095D01*
X16992571Y-7871619D01*
X17344952Y-8014476D02*
X17344952Y-7814476D01*
X17430667Y-8014476D02*
X17430667Y-7909714D01*
X17421143Y-7890667D01*
X17402095Y-7881143D01*
X17373524Y-7881143D01*
X17354476Y-7890667D01*
X17344952Y-7900190D01*
X17554476Y-8014476D02*
X17535429Y-8004952D01*
X17525905Y-7995428D01*
X17516381Y-7976381D01*
X17516381Y-7919238D01*
X17525905Y-7900190D01*
X17535429Y-7890667D01*
X17554476Y-7881143D01*
X17583048Y-7881143D01*
X17602095Y-7890667D01*
X17611619Y-7900190D01*
X17621143Y-7919238D01*
X17621143Y-7976381D01*
X17611619Y-7995428D01*
X17602095Y-8004952D01*
X17583048Y-8014476D01*
X17554476Y-8014476D01*
X17735429Y-8014476D02*
X17716381Y-8004952D01*
X17706857Y-7985905D01*
X17706857Y-7814476D01*
X17887810Y-8004952D02*
X17868762Y-8014476D01*
X17830667Y-8014476D01*
X17811619Y-8004952D01*
X17802095Y-7985905D01*
X17802095Y-7909714D01*
X17811619Y-7890667D01*
X17830667Y-7881143D01*
X17868762Y-7881143D01*
X17887810Y-7890667D01*
X17897333Y-7909714D01*
X17897333Y-7928762D01*
X17802095Y-7947809D01*
X17964000Y-8090667D02*
X17973524Y-8081143D01*
X17992571Y-8052571D01*
X18002095Y-8033524D01*
X18011619Y-8004952D01*
X18021143Y-7957333D01*
X18021143Y-7919238D01*
X18011619Y-7871619D01*
X18002095Y-7843048D01*
X17992571Y-7824000D01*
X17973524Y-7795428D01*
X17964000Y-7785905D01*
D14*
X13294000Y-8128000D02*
X13294000Y-8248000D01*
X13234000Y-8188000D02*
X13354000Y-8188000D01*
D11*
X13716381Y-8278476D02*
X13602095Y-8278476D01*
X13659238Y-8278476D02*
X13659238Y-8078476D01*
X13640190Y-8107048D01*
X13621143Y-8126095D01*
X13602095Y-8135619D01*
X13802095Y-8259428D02*
X13811619Y-8268952D01*
X13802095Y-8278476D01*
X13792571Y-8268952D01*
X13802095Y-8259428D01*
X13802095Y-8278476D01*
X13887809Y-8097524D02*
X13897333Y-8088000D01*
X13916381Y-8078476D01*
X13964000Y-8078476D01*
X13983048Y-8088000D01*
X13992571Y-8097524D01*
X14002095Y-8116571D01*
X14002095Y-8135619D01*
X13992571Y-8164190D01*
X13878286Y-8278476D01*
X14002095Y-8278476D01*
X14125905Y-8078476D02*
X14144952Y-8078476D01*
X14164000Y-8088000D01*
X14173524Y-8097524D01*
X14183048Y-8116571D01*
X14192571Y-8154667D01*
X14192571Y-8202286D01*
X14183048Y-8240381D01*
X14173524Y-8259428D01*
X14164000Y-8268952D01*
X14144952Y-8278476D01*
X14125905Y-8278476D01*
X14106857Y-8268952D01*
X14097333Y-8259428D01*
X14087809Y-8240381D01*
X14078286Y-8202286D01*
X14078286Y-8154667D01*
X14087809Y-8116571D01*
X14097333Y-8097524D01*
X14106857Y-8088000D01*
X14125905Y-8078476D01*
X14316381Y-8078476D02*
X14335428Y-8078476D01*
X14354476Y-8088000D01*
X14364000Y-8097524D01*
X14373524Y-8116571D01*
X14383048Y-8154667D01*
X14383048Y-8202286D01*
X14373524Y-8240381D01*
X14364000Y-8259428D01*
X14354476Y-8268952D01*
X14335428Y-8278476D01*
X14316381Y-8278476D01*
X14297333Y-8268952D01*
X14287809Y-8259428D01*
X14278286Y-8240381D01*
X14268762Y-8202286D01*
X14268762Y-8154667D01*
X14278286Y-8116571D01*
X14287809Y-8097524D01*
X14297333Y-8088000D01*
X14316381Y-8078476D01*
X14468762Y-8278476D02*
X14468762Y-8145143D01*
X14468762Y-8164190D02*
X14478286Y-8154667D01*
X14497333Y-8145143D01*
X14525905Y-8145143D01*
X14544952Y-8154667D01*
X14554476Y-8173714D01*
X14554476Y-8278476D01*
X14554476Y-8173714D02*
X14564000Y-8154667D01*
X14583048Y-8145143D01*
X14611619Y-8145143D01*
X14630667Y-8154667D01*
X14640190Y-8173714D01*
X14640190Y-8278476D01*
X14735428Y-8278476D02*
X14735428Y-8145143D01*
X14735428Y-8164190D02*
X14744952Y-8154667D01*
X14764000Y-8145143D01*
X14792571Y-8145143D01*
X14811619Y-8154667D01*
X14821143Y-8173714D01*
X14821143Y-8278476D01*
X14821143Y-8173714D02*
X14830667Y-8154667D01*
X14849714Y-8145143D01*
X14878286Y-8145143D01*
X14897333Y-8154667D01*
X14906857Y-8173714D01*
X14906857Y-8278476D01*
X15297333Y-8068952D02*
X15125905Y-8326095D01*
X15554476Y-8078476D02*
X15573524Y-8078476D01*
X15592571Y-8088000D01*
X15602095Y-8097524D01*
X15611619Y-8116571D01*
X15621143Y-8154667D01*
X15621143Y-8202286D01*
X15611619Y-8240381D01*
X15602095Y-8259428D01*
X15592571Y-8268952D01*
X15573524Y-8278476D01*
X15554476Y-8278476D01*
X15535428Y-8268952D01*
X15525905Y-8259428D01*
X15516381Y-8240381D01*
X15506857Y-8202286D01*
X15506857Y-8154667D01*
X15516381Y-8116571D01*
X15525905Y-8097524D01*
X15535428Y-8088000D01*
X15554476Y-8078476D01*
X15706857Y-8259428D02*
X15716381Y-8268952D01*
X15706857Y-8278476D01*
X15697333Y-8268952D01*
X15706857Y-8259428D01*
X15706857Y-8278476D01*
X15840190Y-8078476D02*
X15859238Y-8078476D01*
X15878286Y-8088000D01*
X15887809Y-8097524D01*
X15897333Y-8116571D01*
X15906857Y-8154667D01*
X15906857Y-8202286D01*
X15897333Y-8240381D01*
X15887809Y-8259428D01*
X15878286Y-8268952D01*
X15859238Y-8278476D01*
X15840190Y-8278476D01*
X15821143Y-8268952D01*
X15811619Y-8259428D01*
X15802095Y-8240381D01*
X15792571Y-8202286D01*
X15792571Y-8154667D01*
X15802095Y-8116571D01*
X15811619Y-8097524D01*
X15821143Y-8088000D01*
X15840190Y-8078476D01*
X16078286Y-8145143D02*
X16078286Y-8278476D01*
X16030667Y-8068952D02*
X15983048Y-8211809D01*
X16106857Y-8211809D01*
X16164000Y-8078476D02*
X16297333Y-8078476D01*
X16211619Y-8278476D01*
X16364000Y-8097524D02*
X16373524Y-8088000D01*
X16392571Y-8078476D01*
X16440190Y-8078476D01*
X16459238Y-8088000D01*
X16468762Y-8097524D01*
X16478286Y-8116571D01*
X16478286Y-8135619D01*
X16468762Y-8164190D01*
X16354476Y-8278476D01*
X16478286Y-8278476D01*
X16554476Y-8078476D02*
X16554476Y-8116571D01*
X16630667Y-8078476D02*
X16630667Y-8116571D01*
X16925905Y-8354667D02*
X16916381Y-8345143D01*
X16897333Y-8316571D01*
X16887810Y-8297524D01*
X16878286Y-8268952D01*
X16868762Y-8221333D01*
X16868762Y-8183238D01*
X16878286Y-8135619D01*
X16887810Y-8107048D01*
X16897333Y-8088000D01*
X16916381Y-8059428D01*
X16925905Y-8049905D01*
X17030667Y-8164190D02*
X17011619Y-8154667D01*
X17002095Y-8145143D01*
X16992571Y-8126095D01*
X16992571Y-8116571D01*
X17002095Y-8097524D01*
X17011619Y-8088000D01*
X17030667Y-8078476D01*
X17068762Y-8078476D01*
X17087810Y-8088000D01*
X17097333Y-8097524D01*
X17106857Y-8116571D01*
X17106857Y-8126095D01*
X17097333Y-8145143D01*
X17087810Y-8154667D01*
X17068762Y-8164190D01*
X17030667Y-8164190D01*
X17011619Y-8173714D01*
X17002095Y-8183238D01*
X16992571Y-8202286D01*
X16992571Y-8240381D01*
X17002095Y-8259428D01*
X17011619Y-8268952D01*
X17030667Y-8278476D01*
X17068762Y-8278476D01*
X17087810Y-8268952D01*
X17097333Y-8259428D01*
X17106857Y-8240381D01*
X17106857Y-8202286D01*
X17097333Y-8183238D01*
X17087810Y-8173714D01*
X17068762Y-8164190D01*
X17344952Y-8278476D02*
X17344952Y-8078476D01*
X17430667Y-8278476D02*
X17430667Y-8173714D01*
X17421143Y-8154667D01*
X17402095Y-8145143D01*
X17373524Y-8145143D01*
X17354476Y-8154667D01*
X17344952Y-8164190D01*
X17554476Y-8278476D02*
X17535429Y-8268952D01*
X17525905Y-8259428D01*
X17516381Y-8240381D01*
X17516381Y-8183238D01*
X17525905Y-8164190D01*
X17535429Y-8154667D01*
X17554476Y-8145143D01*
X17583048Y-8145143D01*
X17602095Y-8154667D01*
X17611619Y-8164190D01*
X17621143Y-8183238D01*
X17621143Y-8240381D01*
X17611619Y-8259428D01*
X17602095Y-8268952D01*
X17583048Y-8278476D01*
X17554476Y-8278476D01*
X17735429Y-8278476D02*
X17716381Y-8268952D01*
X17706857Y-8249905D01*
X17706857Y-8078476D01*
X17887810Y-8268952D02*
X17868762Y-8278476D01*
X17830667Y-8278476D01*
X17811619Y-8268952D01*
X17802095Y-8249905D01*
X17802095Y-8173714D01*
X17811619Y-8154667D01*
X17830667Y-8145143D01*
X17868762Y-8145143D01*
X17887810Y-8154667D01*
X17897333Y-8173714D01*
X17897333Y-8192762D01*
X17802095Y-8211809D01*
X17973524Y-8268952D02*
X17992571Y-8278476D01*
X18030667Y-8278476D01*
X18049714Y-8268952D01*
X18059238Y-8249905D01*
X18059238Y-8240381D01*
X18049714Y-8221333D01*
X18030667Y-8211809D01*
X18002095Y-8211809D01*
X17983048Y-8202286D01*
X17973524Y-8183238D01*
X17973524Y-8173714D01*
X17983048Y-8154667D01*
X18002095Y-8145143D01*
X18030667Y-8145143D01*
X18049714Y-8154667D01*
X18125905Y-8354667D02*
X18135429Y-8345143D01*
X18154476Y-8316571D01*
X18164000Y-8297524D01*
X18173524Y-8268952D01*
X18183048Y-8221333D01*
X18183048Y-8183238D01*
X18173524Y-8135619D01*
X18164000Y-8107048D01*
X18154476Y-8088000D01*
X18135429Y-8059428D01*
X18125905Y-8049905D01*
M02*
