%TF.GenerationSoftware,KiCad,Pcbnew,(6.0.11)*%
%TF.CreationDate,2023-02-10T19:03:14+05:30*%
%TF.ProjectId,charg,63686172-672e-46b6-9963-61645f706362,rev?*%
%TF.SameCoordinates,Original*%
%TF.FileFunction,Drillmap*%
%TF.FilePolarity,Positive*%
%FSLAX45Y45*%
G04 Gerber Fmt 4.5, Leading zero omitted, Abs format (unit mm)*
G04 Created by KiCad (PCBNEW (6.0.11)) date 2023-02-10 19:03:14*
%MOMM*%
%LPD*%
G01*
G04 APERTURE LIST*
%ADD10C,0.100000*%
%ADD11C,0.200000*%
G04 APERTURE END LIST*
D10*
X13359000Y-6615000D02*
X13359000Y-5415000D01*
X13359000Y-6615000D02*
G75*
G03*
X13759000Y-7015000I400000J0D01*
G01*
X13759000Y-5015000D02*
X15859000Y-5015000D01*
X15859000Y-7015000D02*
G75*
G03*
X16259000Y-6615000I0J400000D01*
G01*
X13759000Y-5015000D02*
G75*
G03*
X13359000Y-5415000I0J-400000D01*
G01*
X16259000Y-5415000D02*
X16259000Y-6615000D01*
X16259000Y-5415000D02*
G75*
G03*
X15859000Y-5015000I-400000J0D01*
G01*
X15859000Y-7015000D02*
X13759000Y-7015000D01*
D11*
X13611619Y-7330476D02*
X13611619Y-7130476D01*
X13659238Y-7130476D01*
X13687809Y-7140000D01*
X13706857Y-7159048D01*
X13716381Y-7178095D01*
X13725905Y-7216190D01*
X13725905Y-7244762D01*
X13716381Y-7282857D01*
X13706857Y-7301905D01*
X13687809Y-7320952D01*
X13659238Y-7330476D01*
X13611619Y-7330476D01*
X13811619Y-7330476D02*
X13811619Y-7197143D01*
X13811619Y-7235238D02*
X13821143Y-7216190D01*
X13830667Y-7206667D01*
X13849714Y-7197143D01*
X13868762Y-7197143D01*
X13935428Y-7330476D02*
X13935428Y-7197143D01*
X13935428Y-7130476D02*
X13925905Y-7140000D01*
X13935428Y-7149524D01*
X13944952Y-7140000D01*
X13935428Y-7130476D01*
X13935428Y-7149524D01*
X14059238Y-7330476D02*
X14040190Y-7320952D01*
X14030667Y-7301905D01*
X14030667Y-7130476D01*
X14164000Y-7330476D02*
X14144952Y-7320952D01*
X14135428Y-7301905D01*
X14135428Y-7130476D01*
X14392571Y-7330476D02*
X14392571Y-7130476D01*
X14459238Y-7273333D01*
X14525905Y-7130476D01*
X14525905Y-7330476D01*
X14706857Y-7330476D02*
X14706857Y-7225714D01*
X14697333Y-7206667D01*
X14678286Y-7197143D01*
X14640190Y-7197143D01*
X14621143Y-7206667D01*
X14706857Y-7320952D02*
X14687809Y-7330476D01*
X14640190Y-7330476D01*
X14621143Y-7320952D01*
X14611619Y-7301905D01*
X14611619Y-7282857D01*
X14621143Y-7263809D01*
X14640190Y-7254286D01*
X14687809Y-7254286D01*
X14706857Y-7244762D01*
X14802095Y-7197143D02*
X14802095Y-7397143D01*
X14802095Y-7206667D02*
X14821143Y-7197143D01*
X14859238Y-7197143D01*
X14878286Y-7206667D01*
X14887809Y-7216190D01*
X14897333Y-7235238D01*
X14897333Y-7292381D01*
X14887809Y-7311428D01*
X14878286Y-7320952D01*
X14859238Y-7330476D01*
X14821143Y-7330476D01*
X14802095Y-7320952D01*
X14983048Y-7311428D02*
X14992571Y-7320952D01*
X14983048Y-7330476D01*
X14973524Y-7320952D01*
X14983048Y-7311428D01*
X14983048Y-7330476D01*
X14983048Y-7206667D02*
X14992571Y-7216190D01*
X14983048Y-7225714D01*
X14973524Y-7216190D01*
X14983048Y-7206667D01*
X14983048Y-7225714D01*
M02*
