%TF.GenerationSoftware,KiCad,Pcbnew,(6.0.11)*%
%TF.CreationDate,2023-02-10T19:03:08+05:30*%
%TF.ProjectId,charg,63686172-672e-46b6-9963-61645f706362,rev?*%
%TF.SameCoordinates,Original*%
%TF.FileFunction,Paste,Top*%
%TF.FilePolarity,Positive*%
%FSLAX46Y46*%
G04 Gerber Fmt 4.6, Leading zero omitted, Abs format (unit mm)*
G04 Created by KiCad (PCBNEW (6.0.11)) date 2023-02-10 19:03:08*
%MOMM*%
%LPD*%
G01*
G04 APERTURE LIST*
%ADD10R,1.400000X1.050000*%
%ADD11R,2.200000X1.550000*%
%ADD12R,0.400000X0.500000*%
%ADD13R,1.020000X1.470000*%
%ADD14R,1.155700X1.397000*%
%ADD15R,1.100000X0.550000*%
%ADD16R,0.420000X0.460000*%
%ADD17R,1.470000X1.020000*%
%ADD18R,0.800000X0.300000*%
%ADD19R,0.300000X0.800000*%
%ADD20R,1.760000X1.760000*%
G04 APERTURE END LIST*
D10*
%TO.C,R2*%
X146050000Y-65720000D03*
X146050000Y-63820000D03*
%TD*%
D11*
%TO.C,D2*%
X147560000Y-53340000D03*
X143460000Y-53340000D03*
%TD*%
D12*
%TO.C,C4*%
X148825000Y-57150000D03*
X149625000Y-57150000D03*
%TD*%
D13*
%TO.C,C3*%
X146400000Y-57150000D03*
X144780000Y-57150000D03*
%TD*%
D14*
%TO.C,L1*%
X151517350Y-57150000D03*
X153282650Y-57150000D03*
%TD*%
D15*
%TO.C,IC1*%
X151130000Y-52390000D03*
X151130000Y-53340000D03*
X151130000Y-54290000D03*
X153730000Y-54290000D03*
X153730000Y-53340000D03*
X153730000Y-52390000D03*
%TD*%
D16*
%TO.C,C2*%
X143510000Y-61900000D03*
X143510000Y-62560000D03*
%TD*%
D17*
%TO.C,C5*%
X152488900Y-60610000D03*
X152488900Y-62230000D03*
%TD*%
D18*
%TO.C,IC2*%
X147150000Y-60140000D03*
X147150000Y-60640000D03*
X147150000Y-61140000D03*
X147150000Y-61640000D03*
D19*
X147900000Y-62390000D03*
X148400000Y-62390000D03*
X148900000Y-62390000D03*
X149400000Y-62390000D03*
D18*
X150150000Y-61640000D03*
X150150000Y-61140000D03*
X150150000Y-60640000D03*
X150150000Y-60140000D03*
D19*
X149400000Y-59390000D03*
X148900000Y-59390000D03*
X148400000Y-59390000D03*
X147900000Y-59390000D03*
D20*
X148650000Y-60890000D03*
%TD*%
D16*
%TO.C,C1*%
X143510000Y-60020000D03*
X143510000Y-59360000D03*
%TD*%
M02*
