%TF.GenerationSoftware,KiCad,Pcbnew,(6.0.11)*%
%TF.CreationDate,2023-02-10T19:03:08+05:30*%
%TF.ProjectId,charg,63686172-672e-46b6-9963-61645f706362,rev?*%
%TF.SameCoordinates,Original*%
%TF.FileFunction,Legend,Top*%
%TF.FilePolarity,Positive*%
%FSLAX46Y46*%
G04 Gerber Fmt 4.6, Leading zero omitted, Abs format (unit mm)*
G04 Created by KiCad (PCBNEW (6.0.11)) date 2023-02-10 19:03:08*
%MOMM*%
%LPD*%
G01*
G04 APERTURE LIST*
%ADD10C,0.150000*%
%ADD11C,0.100000*%
%ADD12C,0.254000*%
%ADD13C,0.120000*%
%ADD14C,0.200000*%
%ADD15C,0.250000*%
G04 APERTURE END LIST*
D10*
X150544666Y-68484000D02*
X150478000Y-68450666D01*
X150378000Y-68450666D01*
X150278000Y-68484000D01*
X150211333Y-68550666D01*
X150178000Y-68617333D01*
X150144666Y-68750666D01*
X150144666Y-68850666D01*
X150178000Y-68984000D01*
X150211333Y-69050666D01*
X150278000Y-69117333D01*
X150378000Y-69150666D01*
X150444666Y-69150666D01*
X150544666Y-69117333D01*
X150578000Y-69084000D01*
X150578000Y-68850666D01*
X150444666Y-68850666D01*
X150878000Y-68784000D02*
X151111333Y-68784000D01*
X151211333Y-69150666D02*
X150878000Y-69150666D01*
X150878000Y-68450666D01*
X151211333Y-68450666D01*
X151911333Y-69084000D02*
X151878000Y-69117333D01*
X151778000Y-69150666D01*
X151711333Y-69150666D01*
X151611333Y-69117333D01*
X151544666Y-69050666D01*
X151511333Y-68984000D01*
X151478000Y-68850666D01*
X151478000Y-68750666D01*
X151511333Y-68617333D01*
X151544666Y-68550666D01*
X151611333Y-68484000D01*
X151711333Y-68450666D01*
X151778000Y-68450666D01*
X151878000Y-68484000D01*
X151911333Y-68517333D01*
X152978000Y-68784000D02*
X153078000Y-68817333D01*
X153111333Y-68850666D01*
X153144666Y-68917333D01*
X153144666Y-69017333D01*
X153111333Y-69084000D01*
X153078000Y-69117333D01*
X153011333Y-69150666D01*
X152744666Y-69150666D01*
X152744666Y-68450666D01*
X152978000Y-68450666D01*
X153044666Y-68484000D01*
X153078000Y-68517333D01*
X153111333Y-68584000D01*
X153111333Y-68650666D01*
X153078000Y-68717333D01*
X153044666Y-68750666D01*
X152978000Y-68784000D01*
X152744666Y-68784000D01*
X153744666Y-69150666D02*
X153744666Y-68784000D01*
X153711333Y-68717333D01*
X153644666Y-68684000D01*
X153511333Y-68684000D01*
X153444666Y-68717333D01*
X153744666Y-69117333D02*
X153678000Y-69150666D01*
X153511333Y-69150666D01*
X153444666Y-69117333D01*
X153411333Y-69050666D01*
X153411333Y-68984000D01*
X153444666Y-68917333D01*
X153511333Y-68884000D01*
X153678000Y-68884000D01*
X153744666Y-68850666D01*
X154078000Y-69150666D02*
X154078000Y-68684000D01*
X154078000Y-68817333D02*
X154111333Y-68750666D01*
X154144666Y-68717333D01*
X154211333Y-68684000D01*
X154278000Y-68684000D01*
X154411333Y-68684000D02*
X154678000Y-68684000D01*
X154511333Y-68450666D02*
X154511333Y-69050666D01*
X154544666Y-69117333D01*
X154611333Y-69150666D01*
X154678000Y-69150666D01*
X155011333Y-69150666D02*
X154944666Y-69117333D01*
X154911333Y-69084000D01*
X154878000Y-69017333D01*
X154878000Y-68817333D01*
X154911333Y-68750666D01*
X154944666Y-68717333D01*
X155011333Y-68684000D01*
X155111333Y-68684000D01*
X155178000Y-68717333D01*
X155211333Y-68750666D01*
X155244666Y-68817333D01*
X155244666Y-69017333D01*
X155211333Y-69084000D01*
X155178000Y-69117333D01*
X155111333Y-69150666D01*
X155011333Y-69150666D01*
X155544666Y-68684000D02*
X155544666Y-69150666D01*
X155544666Y-68750666D02*
X155578000Y-68717333D01*
X155644666Y-68684000D01*
X155744666Y-68684000D01*
X155811333Y-68717333D01*
X155844666Y-68784000D01*
X155844666Y-69150666D01*
X156711333Y-69150666D02*
X156711333Y-68450666D01*
X156711333Y-68784000D02*
X157111333Y-68784000D01*
X157111333Y-69150666D02*
X157111333Y-68450666D01*
X157444666Y-69150666D02*
X157444666Y-68684000D01*
X157444666Y-68450666D02*
X157411333Y-68484000D01*
X157444666Y-68517333D01*
X157478000Y-68484000D01*
X157444666Y-68450666D01*
X157444666Y-68517333D01*
X157878000Y-69150666D02*
X157811333Y-69117333D01*
X157778000Y-69050666D01*
X157778000Y-68450666D01*
X158244666Y-69150666D02*
X158178000Y-69117333D01*
X158144666Y-69050666D01*
X158144666Y-68450666D01*
D11*
X136192000Y-68068000D02*
X136158666Y-68101333D01*
X136058666Y-68134666D01*
X135992000Y-68134666D01*
X135892000Y-68101333D01*
X135825333Y-68034666D01*
X135792000Y-67968000D01*
X135758666Y-67834666D01*
X135758666Y-67734666D01*
X135792000Y-67601333D01*
X135825333Y-67534666D01*
X135892000Y-67468000D01*
X135992000Y-67434666D01*
X136058666Y-67434666D01*
X136158666Y-67468000D01*
X136192000Y-67501333D01*
X136792000Y-67668000D02*
X136792000Y-68134666D01*
X136492000Y-67668000D02*
X136492000Y-68034666D01*
X136525333Y-68101333D01*
X136592000Y-68134666D01*
X136692000Y-68134666D01*
X136758666Y-68101333D01*
X136792000Y-68068000D01*
X137125333Y-68134666D02*
X137125333Y-67434666D01*
X137125333Y-67701333D02*
X137192000Y-67668000D01*
X137325333Y-67668000D01*
X137392000Y-67701333D01*
X137425333Y-67734666D01*
X137458666Y-67801333D01*
X137458666Y-68001333D01*
X137425333Y-68068000D01*
X137392000Y-68101333D01*
X137325333Y-68134666D01*
X137192000Y-68134666D01*
X137125333Y-68101333D01*
X138025333Y-68101333D02*
X137958666Y-68134666D01*
X137825333Y-68134666D01*
X137758666Y-68101333D01*
X137725333Y-68034666D01*
X137725333Y-67768000D01*
X137758666Y-67701333D01*
X137825333Y-67668000D01*
X137958666Y-67668000D01*
X138025333Y-67701333D01*
X138058666Y-67768000D01*
X138058666Y-67834666D01*
X137725333Y-67901333D01*
X138325333Y-68101333D02*
X138425333Y-68134666D01*
X138592000Y-68134666D01*
X138658666Y-68101333D01*
X138692000Y-68068000D01*
X138725333Y-68001333D01*
X138725333Y-67934666D01*
X138692000Y-67868000D01*
X138658666Y-67834666D01*
X138592000Y-67801333D01*
X138458666Y-67768000D01*
X138392000Y-67734666D01*
X138358666Y-67701333D01*
X138325333Y-67634666D01*
X138325333Y-67568000D01*
X138358666Y-67501333D01*
X138392000Y-67468000D01*
X138458666Y-67434666D01*
X138625333Y-67434666D01*
X138725333Y-67468000D01*
X139325333Y-68134666D02*
X139325333Y-67768000D01*
X139292000Y-67701333D01*
X139225333Y-67668000D01*
X139092000Y-67668000D01*
X139025333Y-67701333D01*
X139325333Y-68101333D02*
X139258666Y-68134666D01*
X139092000Y-68134666D01*
X139025333Y-68101333D01*
X138992000Y-68034666D01*
X138992000Y-67968000D01*
X139025333Y-67901333D01*
X139092000Y-67868000D01*
X139258666Y-67868000D01*
X139325333Y-67834666D01*
X139558666Y-67668000D02*
X139825333Y-67668000D01*
X139658666Y-67434666D02*
X139658666Y-68034666D01*
X139692000Y-68101333D01*
X139758666Y-68134666D01*
X139825333Y-68134666D01*
X140592000Y-67768000D02*
X140825333Y-67768000D01*
X140925333Y-68134666D02*
X140592000Y-68134666D01*
X140592000Y-67434666D01*
X140925333Y-67434666D01*
X141225333Y-68134666D02*
X141225333Y-67434666D01*
X141492000Y-67434666D01*
X141558666Y-67468000D01*
X141592000Y-67501333D01*
X141625333Y-67568000D01*
X141625333Y-67668000D01*
X141592000Y-67734666D01*
X141558666Y-67768000D01*
X141492000Y-67801333D01*
X141225333Y-67801333D01*
X141892000Y-68101333D02*
X141992000Y-68134666D01*
X142158666Y-68134666D01*
X142225333Y-68101333D01*
X142258666Y-68068000D01*
X142292000Y-68001333D01*
X142292000Y-67934666D01*
X142258666Y-67868000D01*
X142225333Y-67834666D01*
X142158666Y-67801333D01*
X142025333Y-67768000D01*
X141958666Y-67734666D01*
X141925333Y-67701333D01*
X141892000Y-67634666D01*
X141892000Y-67568000D01*
X141925333Y-67501333D01*
X141958666Y-67468000D01*
X142025333Y-67434666D01*
X142192000Y-67434666D01*
X142292000Y-67468000D01*
X143358666Y-67768000D02*
X143458666Y-67801333D01*
X143492000Y-67834666D01*
X143525333Y-67901333D01*
X143525333Y-68001333D01*
X143492000Y-68068000D01*
X143458666Y-68101333D01*
X143392000Y-68134666D01*
X143125333Y-68134666D01*
X143125333Y-67434666D01*
X143358666Y-67434666D01*
X143425333Y-67468000D01*
X143458666Y-67501333D01*
X143492000Y-67568000D01*
X143492000Y-67634666D01*
X143458666Y-67701333D01*
X143425333Y-67734666D01*
X143358666Y-67768000D01*
X143125333Y-67768000D01*
X144125333Y-68134666D02*
X144125333Y-67768000D01*
X144092000Y-67701333D01*
X144025333Y-67668000D01*
X143892000Y-67668000D01*
X143825333Y-67701333D01*
X144125333Y-68101333D02*
X144058666Y-68134666D01*
X143892000Y-68134666D01*
X143825333Y-68101333D01*
X143792000Y-68034666D01*
X143792000Y-67968000D01*
X143825333Y-67901333D01*
X143892000Y-67868000D01*
X144058666Y-67868000D01*
X144125333Y-67834666D01*
X144358666Y-67668000D02*
X144625333Y-67668000D01*
X144458666Y-67434666D02*
X144458666Y-68034666D01*
X144492000Y-68101333D01*
X144558666Y-68134666D01*
X144625333Y-68134666D01*
X144758666Y-67668000D02*
X145025333Y-67668000D01*
X144858666Y-67434666D02*
X144858666Y-68034666D01*
X144892000Y-68101333D01*
X144958666Y-68134666D01*
X145025333Y-68134666D01*
X145525333Y-68101333D02*
X145458666Y-68134666D01*
X145325333Y-68134666D01*
X145258666Y-68101333D01*
X145225333Y-68034666D01*
X145225333Y-67768000D01*
X145258666Y-67701333D01*
X145325333Y-67668000D01*
X145458666Y-67668000D01*
X145525333Y-67701333D01*
X145558666Y-67768000D01*
X145558666Y-67834666D01*
X145225333Y-67901333D01*
X145858666Y-68134666D02*
X145858666Y-67668000D01*
X145858666Y-67801333D02*
X145892000Y-67734666D01*
X145925333Y-67701333D01*
X145992000Y-67668000D01*
X146058666Y-67668000D01*
X146225333Y-67668000D02*
X146392000Y-68134666D01*
X146558666Y-67668000D02*
X146392000Y-68134666D01*
X146325333Y-68301333D01*
X146292000Y-68334666D01*
X146225333Y-68368000D01*
X147758666Y-68068000D02*
X147725333Y-68101333D01*
X147625333Y-68134666D01*
X147558666Y-68134666D01*
X147458666Y-68101333D01*
X147392000Y-68034666D01*
X147358666Y-67968000D01*
X147325333Y-67834666D01*
X147325333Y-67734666D01*
X147358666Y-67601333D01*
X147392000Y-67534666D01*
X147458666Y-67468000D01*
X147558666Y-67434666D01*
X147625333Y-67434666D01*
X147725333Y-67468000D01*
X147758666Y-67501333D01*
X148058666Y-68134666D02*
X148058666Y-67434666D01*
X148358666Y-68134666D02*
X148358666Y-67768000D01*
X148325333Y-67701333D01*
X148258666Y-67668000D01*
X148158666Y-67668000D01*
X148092000Y-67701333D01*
X148058666Y-67734666D01*
X148992000Y-68134666D02*
X148992000Y-67768000D01*
X148958666Y-67701333D01*
X148892000Y-67668000D01*
X148758666Y-67668000D01*
X148692000Y-67701333D01*
X148992000Y-68101333D02*
X148925333Y-68134666D01*
X148758666Y-68134666D01*
X148692000Y-68101333D01*
X148658666Y-68034666D01*
X148658666Y-67968000D01*
X148692000Y-67901333D01*
X148758666Y-67868000D01*
X148925333Y-67868000D01*
X148992000Y-67834666D01*
X149325333Y-68134666D02*
X149325333Y-67668000D01*
X149325333Y-67801333D02*
X149358666Y-67734666D01*
X149392000Y-67701333D01*
X149458666Y-67668000D01*
X149525333Y-67668000D01*
X150058666Y-67668000D02*
X150058666Y-68234666D01*
X150025333Y-68301333D01*
X149992000Y-68334666D01*
X149925333Y-68368000D01*
X149825333Y-68368000D01*
X149758666Y-68334666D01*
X150058666Y-68101333D02*
X149992000Y-68134666D01*
X149858666Y-68134666D01*
X149792000Y-68101333D01*
X149758666Y-68068000D01*
X149725333Y-68001333D01*
X149725333Y-67801333D01*
X149758666Y-67734666D01*
X149792000Y-67701333D01*
X149858666Y-67668000D01*
X149992000Y-67668000D01*
X150058666Y-67701333D01*
X150658666Y-68101333D02*
X150592000Y-68134666D01*
X150458666Y-68134666D01*
X150392000Y-68101333D01*
X150358666Y-68034666D01*
X150358666Y-67768000D01*
X150392000Y-67701333D01*
X150458666Y-67668000D01*
X150592000Y-67668000D01*
X150658666Y-67701333D01*
X150692000Y-67768000D01*
X150692000Y-67834666D01*
X150358666Y-67901333D01*
X150992000Y-68134666D02*
X150992000Y-67668000D01*
X150992000Y-67801333D02*
X151025333Y-67734666D01*
X151058666Y-67701333D01*
X151125333Y-67668000D01*
X151192000Y-67668000D01*
X151958666Y-68134666D02*
X151958666Y-67434666D01*
X152192000Y-67934666D01*
X152425333Y-67434666D01*
X152425333Y-68134666D01*
X152858666Y-68134666D02*
X152792000Y-68101333D01*
X152758666Y-68068000D01*
X152725333Y-68001333D01*
X152725333Y-67801333D01*
X152758666Y-67734666D01*
X152792000Y-67701333D01*
X152858666Y-67668000D01*
X152958666Y-67668000D01*
X153025333Y-67701333D01*
X153058666Y-67734666D01*
X153092000Y-67801333D01*
X153092000Y-68001333D01*
X153058666Y-68068000D01*
X153025333Y-68101333D01*
X152958666Y-68134666D01*
X152858666Y-68134666D01*
X153692000Y-68134666D02*
X153692000Y-67434666D01*
X153692000Y-68101333D02*
X153625333Y-68134666D01*
X153492000Y-68134666D01*
X153425333Y-68101333D01*
X153392000Y-68068000D01*
X153358666Y-68001333D01*
X153358666Y-67801333D01*
X153392000Y-67734666D01*
X153425333Y-67701333D01*
X153492000Y-67668000D01*
X153625333Y-67668000D01*
X153692000Y-67701333D01*
X154325333Y-67668000D02*
X154325333Y-68134666D01*
X154025333Y-67668000D02*
X154025333Y-68034666D01*
X154058666Y-68101333D01*
X154125333Y-68134666D01*
X154225333Y-68134666D01*
X154292000Y-68101333D01*
X154325333Y-68068000D01*
X154758666Y-68134666D02*
X154692000Y-68101333D01*
X154658666Y-68034666D01*
X154658666Y-67434666D01*
X155292000Y-68101333D02*
X155225333Y-68134666D01*
X155092000Y-68134666D01*
X155025333Y-68101333D01*
X154992000Y-68034666D01*
X154992000Y-67768000D01*
X155025333Y-67701333D01*
X155092000Y-67668000D01*
X155225333Y-67668000D01*
X155292000Y-67701333D01*
X155325333Y-67768000D01*
X155325333Y-67834666D01*
X154992000Y-67901333D01*
D10*
%TO.C,R2*%
X147861428Y-64750000D02*
X147575714Y-64950000D01*
X147861428Y-65092857D02*
X147261428Y-65092857D01*
X147261428Y-64864285D01*
X147290000Y-64807142D01*
X147318571Y-64778571D01*
X147375714Y-64750000D01*
X147461428Y-64750000D01*
X147518571Y-64778571D01*
X147547142Y-64807142D01*
X147575714Y-64864285D01*
X147575714Y-65092857D01*
X147318571Y-64521428D02*
X147290000Y-64492857D01*
X147261428Y-64435714D01*
X147261428Y-64292857D01*
X147290000Y-64235714D01*
X147318571Y-64207142D01*
X147375714Y-64178571D01*
X147432857Y-64178571D01*
X147518571Y-64207142D01*
X147861428Y-64550000D01*
X147861428Y-64178571D01*
D12*
%TO.C,D2*%
X144572619Y-53914523D02*
X144572619Y-52644523D01*
X144875000Y-52644523D01*
X145056428Y-52705000D01*
X145177380Y-52825952D01*
X145237857Y-52946904D01*
X145298333Y-53188809D01*
X145298333Y-53370238D01*
X145237857Y-53612142D01*
X145177380Y-53733095D01*
X145056428Y-53854047D01*
X144875000Y-53914523D01*
X144572619Y-53914523D01*
X145782142Y-52765476D02*
X145842619Y-52705000D01*
X145963571Y-52644523D01*
X146265952Y-52644523D01*
X146386904Y-52705000D01*
X146447380Y-52765476D01*
X146507857Y-52886428D01*
X146507857Y-53007380D01*
X146447380Y-53188809D01*
X145721666Y-53914523D01*
X146507857Y-53914523D01*
D10*
%TO.C,C4*%
X149125000Y-56094285D02*
X149096428Y-56122857D01*
X149010714Y-56151428D01*
X148953571Y-56151428D01*
X148867857Y-56122857D01*
X148810714Y-56065714D01*
X148782142Y-56008571D01*
X148753571Y-55894285D01*
X148753571Y-55808571D01*
X148782142Y-55694285D01*
X148810714Y-55637142D01*
X148867857Y-55580000D01*
X148953571Y-55551428D01*
X149010714Y-55551428D01*
X149096428Y-55580000D01*
X149125000Y-55608571D01*
X149639285Y-55751428D02*
X149639285Y-56151428D01*
X149496428Y-55522857D02*
X149353571Y-55951428D01*
X149725000Y-55951428D01*
D13*
%TO.C,C3*%
X144490000Y-58888285D02*
X144461428Y-58916857D01*
X144375714Y-58945428D01*
X144318571Y-58945428D01*
X144232857Y-58916857D01*
X144175714Y-58859714D01*
X144147142Y-58802571D01*
X144118571Y-58688285D01*
X144118571Y-58602571D01*
X144147142Y-58488285D01*
X144175714Y-58431142D01*
X144232857Y-58374000D01*
X144318571Y-58345428D01*
X144375714Y-58345428D01*
X144461428Y-58374000D01*
X144490000Y-58402571D01*
X144690000Y-58345428D02*
X145061428Y-58345428D01*
X144861428Y-58574000D01*
X144947142Y-58574000D01*
X145004285Y-58602571D01*
X145032857Y-58631142D01*
X145061428Y-58688285D01*
X145061428Y-58831142D01*
X145032857Y-58888285D01*
X145004285Y-58916857D01*
X144947142Y-58945428D01*
X144775714Y-58945428D01*
X144718571Y-58916857D01*
X144690000Y-58888285D01*
D10*
%TO.C,L1*%
X152300000Y-58921428D02*
X152014285Y-58921428D01*
X152014285Y-58321428D01*
X152814285Y-58921428D02*
X152471428Y-58921428D01*
X152642857Y-58921428D02*
X152642857Y-58321428D01*
X152585714Y-58407142D01*
X152528571Y-58464285D01*
X152471428Y-58492857D01*
%TO.C,IC1*%
X153504285Y-55921428D02*
X153504285Y-55321428D01*
X154132857Y-55864285D02*
X154104285Y-55892857D01*
X154018571Y-55921428D01*
X153961428Y-55921428D01*
X153875714Y-55892857D01*
X153818571Y-55835714D01*
X153790000Y-55778571D01*
X153761428Y-55664285D01*
X153761428Y-55578571D01*
X153790000Y-55464285D01*
X153818571Y-55407142D01*
X153875714Y-55350000D01*
X153961428Y-55321428D01*
X154018571Y-55321428D01*
X154104285Y-55350000D01*
X154132857Y-55378571D01*
X154704285Y-55921428D02*
X154361428Y-55921428D01*
X154532857Y-55921428D02*
X154532857Y-55321428D01*
X154475714Y-55407142D01*
X154418571Y-55464285D01*
X154361428Y-55492857D01*
%TO.C,J1*%
X137761428Y-51850000D02*
X138190000Y-51850000D01*
X138275714Y-51878571D01*
X138332857Y-51935714D01*
X138361428Y-52021428D01*
X138361428Y-52078571D01*
X138361428Y-51250000D02*
X138361428Y-51592857D01*
X138361428Y-51421428D02*
X137761428Y-51421428D01*
X137847142Y-51478571D01*
X137904285Y-51535714D01*
X137932857Y-51592857D01*
%TO.C,C2*%
X142804285Y-63750000D02*
X142832857Y-63778571D01*
X142861428Y-63864285D01*
X142861428Y-63921428D01*
X142832857Y-64007142D01*
X142775714Y-64064285D01*
X142718571Y-64092857D01*
X142604285Y-64121428D01*
X142518571Y-64121428D01*
X142404285Y-64092857D01*
X142347142Y-64064285D01*
X142290000Y-64007142D01*
X142261428Y-63921428D01*
X142261428Y-63864285D01*
X142290000Y-63778571D01*
X142318571Y-63750000D01*
X142318571Y-63521428D02*
X142290000Y-63492857D01*
X142261428Y-63435714D01*
X142261428Y-63292857D01*
X142290000Y-63235714D01*
X142318571Y-63207142D01*
X142375714Y-63178571D01*
X142432857Y-63178571D01*
X142518571Y-63207142D01*
X142861428Y-63550000D01*
X142861428Y-63178571D01*
%TO.C,C5*%
X154304285Y-61250000D02*
X154332857Y-61278571D01*
X154361428Y-61364285D01*
X154361428Y-61421428D01*
X154332857Y-61507142D01*
X154275714Y-61564285D01*
X154218571Y-61592857D01*
X154104285Y-61621428D01*
X154018571Y-61621428D01*
X153904285Y-61592857D01*
X153847142Y-61564285D01*
X153790000Y-61507142D01*
X153761428Y-61421428D01*
X153761428Y-61364285D01*
X153790000Y-61278571D01*
X153818571Y-61250000D01*
X153761428Y-60707142D02*
X153761428Y-60992857D01*
X154047142Y-61021428D01*
X154018571Y-60992857D01*
X153990000Y-60935714D01*
X153990000Y-60792857D01*
X154018571Y-60735714D01*
X154047142Y-60707142D01*
X154104285Y-60678571D01*
X154247142Y-60678571D01*
X154304285Y-60707142D01*
X154332857Y-60735714D01*
X154361428Y-60792857D01*
X154361428Y-60935714D01*
X154332857Y-60992857D01*
X154304285Y-61021428D01*
%TO.C,IC2*%
X146004285Y-58921428D02*
X146004285Y-58321428D01*
X146632857Y-58864285D02*
X146604285Y-58892857D01*
X146518571Y-58921428D01*
X146461428Y-58921428D01*
X146375714Y-58892857D01*
X146318571Y-58835714D01*
X146290000Y-58778571D01*
X146261428Y-58664285D01*
X146261428Y-58578571D01*
X146290000Y-58464285D01*
X146318571Y-58407142D01*
X146375714Y-58350000D01*
X146461428Y-58321428D01*
X146518571Y-58321428D01*
X146604285Y-58350000D01*
X146632857Y-58378571D01*
X146861428Y-58378571D02*
X146890000Y-58350000D01*
X146947142Y-58321428D01*
X147090000Y-58321428D01*
X147147142Y-58350000D01*
X147175714Y-58378571D01*
X147204285Y-58435714D01*
X147204285Y-58492857D01*
X147175714Y-58578571D01*
X146832857Y-58921428D01*
X147204285Y-58921428D01*
D13*
%TO.C,C1*%
X142804285Y-60750000D02*
X142832857Y-60778571D01*
X142861428Y-60864285D01*
X142861428Y-60921428D01*
X142832857Y-61007142D01*
X142775714Y-61064285D01*
X142718571Y-61092857D01*
X142604285Y-61121428D01*
X142518571Y-61121428D01*
X142404285Y-61092857D01*
X142347142Y-61064285D01*
X142290000Y-61007142D01*
X142261428Y-60921428D01*
X142261428Y-60864285D01*
X142290000Y-60778571D01*
X142318571Y-60750000D01*
X142861428Y-60178571D02*
X142861428Y-60521428D01*
X142861428Y-60350000D02*
X142261428Y-60350000D01*
X142347142Y-60407142D01*
X142404285Y-60464285D01*
X142432857Y-60521428D01*
D10*
%TO.C,J2*%
X157970717Y-67600000D02*
X158399289Y-67600000D01*
X158485003Y-67628571D01*
X158542146Y-67685714D01*
X158570717Y-67771428D01*
X158570717Y-67828571D01*
X158027860Y-67342857D02*
X157999289Y-67314285D01*
X157970717Y-67257142D01*
X157970717Y-67114285D01*
X157999289Y-67057142D01*
X158027860Y-67028571D01*
X158085003Y-67000000D01*
X158142146Y-67000000D01*
X158227860Y-67028571D01*
X158570717Y-67371428D01*
X158570717Y-67000000D01*
%TO.C,J4*%
X151390000Y-64821428D02*
X151390000Y-65250000D01*
X151361428Y-65335714D01*
X151304285Y-65392857D01*
X151218571Y-65421428D01*
X151161428Y-65421428D01*
X151932857Y-65021428D02*
X151932857Y-65421428D01*
X151790000Y-64792857D02*
X151647142Y-65221428D01*
X152018571Y-65221428D01*
D14*
%TO.C,R2*%
X145525000Y-64770000D02*
X146575000Y-64770000D01*
%TO.C,D2*%
X148048000Y-52052000D02*
X142972000Y-52052000D01*
X142972000Y-54628000D02*
X148335000Y-54628000D01*
%TO.C,C4*%
X148025000Y-57150000D02*
G75*
G03*
X148025000Y-57150000I-50000J0D01*
G01*
%TO.C,IC1*%
X150580000Y-51765000D02*
X151680000Y-51765000D01*
X152030000Y-54852000D02*
X152030000Y-51828000D01*
X152830000Y-51828000D02*
X152830000Y-54852000D01*
X152830000Y-54852000D02*
X152030000Y-54852000D01*
X152030000Y-51828000D02*
X152830000Y-51828000D01*
D13*
%TO.C,J1*%
X141290000Y-66920000D02*
X134670000Y-66920000D01*
X137305000Y-60675000D02*
X137250000Y-60621000D01*
X137305000Y-64175000D02*
X137250000Y-64121000D01*
X137516000Y-57007000D02*
X137440000Y-56931000D01*
X139420000Y-66290000D02*
X139344000Y-66214000D01*
X139420000Y-62790000D02*
X139344000Y-62714000D01*
X136230000Y-52800000D02*
X136230000Y-66920000D01*
X134430000Y-52560000D02*
X134430000Y-54060000D01*
X141290000Y-52800000D02*
X141290000Y-66920000D01*
X139610000Y-59100000D02*
X139556000Y-59046000D01*
X137305000Y-57175000D02*
X137250000Y-57121000D01*
X136170000Y-52560000D02*
X134430000Y-52560000D01*
X139420000Y-59290000D02*
X139344000Y-59214000D01*
X137516000Y-64007000D02*
X137440000Y-63931000D01*
X134670000Y-52800000D02*
X134670000Y-66920000D01*
X141290000Y-52800000D02*
X134670000Y-52800000D01*
X139610000Y-62600000D02*
X139556000Y-62546000D01*
X139610000Y-66100000D02*
X139556000Y-66046000D01*
X137516000Y-60507000D02*
X137440000Y-60431000D01*
X137044000Y-53903000D02*
G75*
G03*
X136874318Y-54636444I1385995J-706999D01*
G01*
X139137000Y-53224000D02*
G75*
G03*
X137724267Y-53223355I-707000J-1386000D01*
G01*
X139816000Y-55317000D02*
G75*
G03*
X139816645Y-53904267I-1386000J707000D01*
G01*
X136875000Y-54610000D02*
G75*
G03*
X137044485Y-55315955I1555008J2D01*
G01*
X137723000Y-55996000D02*
G75*
G03*
X139135733Y-55996645I706999J1386001D01*
G01*
X139985000Y-65110000D02*
G75*
G03*
X139985000Y-65110000I-1555000J0D01*
G01*
X139985000Y-61610000D02*
G75*
G03*
X139985000Y-61610000I-1555000J0D01*
G01*
X139985000Y-58110000D02*
G75*
G03*
X139985000Y-58110000I-1555000J0D01*
G01*
D15*
%TO.C,IC2*%
X146875000Y-59390000D02*
G75*
G03*
X146875000Y-59390000I-125000J0D01*
G01*
D13*
%TO.C,J2*%
X159425000Y-58875000D02*
X159480000Y-58929000D01*
X157120000Y-56950000D02*
X157174000Y-57004000D01*
X157310000Y-56760000D02*
X157386000Y-56836000D01*
X159425000Y-62375000D02*
X159480000Y-62429000D01*
X157120000Y-60450000D02*
X157174000Y-60504000D01*
X159214000Y-62543000D02*
X159290000Y-62619000D01*
X159214000Y-55543000D02*
X159290000Y-55619000D01*
X159214000Y-59043000D02*
X159290000Y-59119000D01*
X155440000Y-66750000D02*
X162060000Y-66750000D01*
X155440000Y-66750000D02*
X155440000Y-52630000D01*
X157310000Y-60260000D02*
X157386000Y-60336000D01*
X162060000Y-66750000D02*
X162060000Y-52630000D01*
X162300000Y-66990000D02*
X162300000Y-65490000D01*
X157310000Y-53260000D02*
X157386000Y-53336000D01*
X160560000Y-66990000D02*
X162300000Y-66990000D01*
X159425000Y-55375000D02*
X159480000Y-55429000D01*
X160500000Y-66750000D02*
X160500000Y-52630000D01*
X157120000Y-53450000D02*
X157174000Y-53504000D01*
X155440000Y-52630000D02*
X162060000Y-52630000D01*
X157593000Y-66326000D02*
G75*
G03*
X159005733Y-66326645I707000J1386000D01*
G01*
X159686000Y-65647000D02*
G75*
G03*
X159855682Y-64913556I-1385995J706999D01*
G01*
X156914000Y-64233000D02*
G75*
G03*
X156913355Y-65645733I1386000J-707000D01*
G01*
X159855000Y-64940000D02*
G75*
G03*
X159685515Y-64234045I-1555008J-2D01*
G01*
X159007000Y-63554000D02*
G75*
G03*
X157594267Y-63553355I-706999J-1386001D01*
G01*
X159855000Y-61440000D02*
G75*
G03*
X159855000Y-61440000I-1555000J0D01*
G01*
X159855000Y-54440000D02*
G75*
G03*
X159855000Y-54440000I-1555000J0D01*
G01*
X159855000Y-57940000D02*
G75*
G03*
X159855000Y-57940000I-1555000J0D01*
G01*
%TO.C,J4*%
X149165000Y-65455000D02*
X149251724Y-65455000D01*
X150468276Y-65455000D02*
X150555000Y-65455000D01*
X149165000Y-65455000D02*
X150555000Y-65455000D01*
X150555000Y-65455000D02*
X150555000Y-65330000D01*
X149165000Y-64770000D02*
X149165000Y-64085000D01*
X149165000Y-65455000D02*
X149165000Y-65330000D01*
X149165000Y-64085000D02*
X149860000Y-64085000D01*
%TD*%
M02*
